<svg width="100%" height="100%" viewBox="0 0 132 30" fill="none" xmlns="http://www.w3.org/2000/svg">
<path d="M0.21875 0.484375C1.96354 0.692708 3.47396 0.848958 4.75 0.953125C6.02604 1.03125 7.08073 1.09635 7.91406 1.14844C8.8776 1.20052 9.6849 1.21354 10.3359 1.1875C11.013 1.16146 11.9375 1.09635 13.1094 0.992188C14.099 0.914062 15.401 0.809896 17.0156 0.679688C18.6302 0.523438 20.6484 0.315104 23.0703 0.0546875C23.0964 0.653646 23.1094 1.23958 23.1094 1.8125C23.1354 2.35938 23.1615 2.84115 23.1875 3.25781C23.2135 3.7526 23.2266 4.20833 23.2266 4.625C23.2266 5.06771 23.2005 5.6276 23.1484 6.30469C23.0964 6.8776 23.0052 7.60677 22.875 8.49219C22.7708 9.35156 22.6016 10.3802 22.3672 11.5781C22.0026 10.1719 21.651 9.03906 21.3125 8.17969C20.974 7.29427 20.6615 6.59115 20.375 6.07031C20.0625 5.47135 19.75 5.01562 19.4375 4.70312C19.099 4.46875 18.6953 4.27344 18.2266 4.11719C17.8099 3.98698 17.276 3.88281 16.625 3.80469C16 3.72656 15.2578 3.73958 14.3984 3.84375C14.2682 7.28125 14.1771 10.0677 14.125 12.2031C14.0729 14.3385 14.0339 16.0052 14.0078 17.2031C13.9818 18.6354 13.9688 19.6641 13.9688 20.2891C13.9948 21.1745 14.138 22.0469 14.3984 22.9062C14.6068 23.6354 14.9453 24.3906 15.4141 25.1719C15.8828 25.9531 16.5599 26.6432 17.4453 27.2422H12.6797C12.237 27.2422 11.6901 27.2682 11.0391 27.3203C10.4922 27.3724 9.78906 27.4245 8.92969 27.4766C8.09635 27.5286 7.11979 27.6198 6 27.75C6.39062 27.0729 6.70312 26.4609 6.9375 25.9141C7.17188 25.3672 7.35417 24.8984 7.48438 24.5078C7.64062 24.0391 7.75781 23.6224 7.83594 23.2578C7.86198 22.737 7.92708 21.6823 8.03125 20.0938C8.05729 19.4427 8.08333 18.6354 8.10938 17.6719C8.16146 16.7083 8.21354 15.5625 8.26562 14.2344C8.34375 12.9062 8.40885 11.3828 8.46094 9.66406C8.53906 7.91927 8.61719 5.95312 8.69531 3.76562C8.22656 3.63542 7.78385 3.64844 7.36719 3.80469C6.95052 3.9349 6.58594 4.10417 6.27344 4.3125C5.90885 4.57292 5.55729 4.88542 5.21875 5.25C4.88021 5.69271 4.5026 6.26562 4.08594 6.96875C3.72135 7.56771 3.30469 8.36198 2.83594 9.35156C2.36719 10.3151 1.83333 11.513 1.23438 12.9453C1.10417 11.4349 1.01302 10.1979 0.960938 9.23438C0.908854 8.24479 0.869792 7.47656 0.84375 6.92969C0.817708 6.27865 0.804688 5.79688 0.804688 5.48438C0.804688 5.19792 0.778646 4.82031 0.726562 4.35156C0.674479 3.96094 0.609375 3.45312 0.53125 2.82812C0.453125 2.17708 0.348958 1.39583 0.21875 0.484375ZM30.2969 11.5C30.974 11.5 31.6771 11.6302 32.4062 11.8906C33.1354 12.125 33.8385 12.4375 34.5156 12.8281C35.1927 13.1927 35.8047 13.5964 36.3516 14.0391C36.9245 14.4557 37.3932 14.8594 37.7578 15.25C38.4089 15.9531 38.8516 16.9036 39.0859 18.1016C39.3464 19.2734 39.3984 20.4844 39.2422 21.7344C39.0859 22.9583 38.7214 24.1172 38.1484 25.2109C37.5755 26.3047 36.7812 27.112 35.7656 27.6328C35.0365 27.9974 34.3203 28.2839 33.6172 28.4922C32.9141 28.7005 32.237 28.8568 31.5859 28.9609C30.9349 29.0651 30.3229 29.1172 29.75 29.1172C29.1771 29.1172 28.6823 29.1042 28.2656 29.0781C27.4844 29.026 26.6641 28.7526 25.8047 28.2578C24.9714 27.763 24.1771 27.151 23.4219 26.4219C22.6927 25.6927 22.0677 24.8984 21.5469 24.0391C21.026 23.1536 20.7135 22.3203 20.6094 21.5391C20.4531 20.4714 20.4271 19.3516 20.5312 18.1797C20.6354 17.0078 21.013 15.9271 21.6641 14.9375C22.3411 13.9479 23.3568 13.1276 24.7109 12.4766C26.0911 11.8255 27.9531 11.5 30.2969 11.5ZM29.0078 26.6562C29.2943 26.7083 29.6849 26.6432 30.1797 26.4609C30.6745 26.2526 31.1562 25.9271 31.625 25.4844C32.1198 25.0417 32.5495 24.4818 32.9141 23.8047C33.3047 23.1016 33.5391 22.2552 33.6172 21.2656C33.6953 20.3021 33.6953 19.4167 33.6172 18.6094C33.5651 17.8021 33.4479 17.099 33.2656 16.5C33.0833 15.875 32.875 15.3672 32.6406 14.9766C32.4062 14.5859 32.1589 14.3125 31.8984 14.1562C31.4557 13.9219 30.9219 13.7396 30.2969 13.6094C29.6719 13.4531 29.138 13.4792 28.6953 13.6875C28.487 13.7917 28.2266 14.013 27.9141 14.3516C27.6016 14.6901 27.2891 15.1198 26.9766 15.6406C26.6641 16.1354 26.3776 16.7083 26.1172 17.3594C25.8828 18.0104 25.7135 18.6875 25.6094 19.3906C25.5052 20.0938 25.4792 20.849 25.5312 21.6562C25.6094 22.4635 25.7786 23.2318 26.0391 23.9609C26.2995 24.6641 26.6641 25.276 27.1328 25.7969C27.6276 26.2917 28.2526 26.5781 29.0078 26.6562ZM39.7109 1.14844C40.6224 1.27865 41.4167 1.38281 42.0938 1.46094C42.7708 1.53906 43.3307 1.60417 43.7734 1.65625C44.2943 1.70833 44.737 1.7474 45.1016 1.77344C45.5182 1.82552 46.026 1.79948 46.625 1.69531C47.25 1.59115 47.9141 1.48698 48.6172 1.38281C49.3203 1.2526 50.0495 1.14844 50.8047 1.07031C51.5599 0.992188 52.2891 0.992188 52.9922 1.07031C53.4609 1.1224 54.0599 1.22656 54.7891 1.38281C55.5182 1.53906 56.2865 1.78646 57.0938 2.125C57.9271 2.46354 58.7604 2.90625 59.5938 3.45312C60.4271 4 61.1823 4.6901 61.8594 5.52344C62.5365 6.35677 63.0964 7.34635 63.5391 8.49219C63.9818 9.63802 64.2292 10.9792 64.2812 12.5156C64.3594 14.8073 64.151 16.8906 63.6562 18.7656C63.1615 20.6406 62.3932 22.2422 61.3516 23.5703C60.3359 24.8984 59.0469 25.9401 57.4844 26.6953C55.9219 27.4505 54.099 27.8672 52.0156 27.9453C50.4271 28.0755 48.8646 28.1927 47.3281 28.2969C46.6771 28.349 45.987 28.388 45.2578 28.4141C44.5547 28.4401 43.8516 28.4661 43.1484 28.4922C42.4453 28.4922 41.7682 28.4792 41.1172 28.4531C40.4661 28.4271 39.8672 28.388 39.3203 28.3359C39.9193 28.0495 40.401 27.763 40.7656 27.4766C41.1562 27.1901 41.4557 26.9427 41.6641 26.7344C41.8984 26.474 42.0677 26.2396 42.1719 26.0312C42.224 25.7448 42.3021 25.1849 42.4062 24.3516C42.4844 23.6484 42.5885 22.6458 42.7188 21.3438C42.849 20.0417 43.0052 18.2708 43.1875 16.0312L43.4219 13.2578C43.5521 11.5391 43.6042 10.1328 43.5781 9.03906C43.5781 7.94531 43.5521 7.08594 43.5 6.46094C43.4219 5.73177 43.3177 5.19792 43.1875 4.85938C43.0833 4.57292 42.888 4.23438 42.6016 3.84375C42.3411 3.53125 41.9766 3.15365 41.5078 2.71094C41.0651 2.24219 40.4661 1.72135 39.7109 1.14844ZM47.9531 15.5234C48.0052 17.8411 48.1224 19.625 48.3047 20.875C48.513 22.099 48.7344 23.0104 48.9688 23.6094C49.2552 24.2865 49.5677 24.6901 49.9062 24.8203C50.401 24.8203 50.9609 24.612 51.5859 24.1953C52.2109 23.7526 52.8229 23.0885 53.4219 22.2031C54.0469 21.3177 54.6068 20.2109 55.1016 18.8828C55.6224 17.5547 56 16.0052 56.2344 14.2344C56.4688 12.4635 56.4036 10.901 56.0391 9.54688C55.6745 8.19271 55.1927 7.0599 54.5938 6.14844C53.9948 5.21094 53.3828 4.50781 52.7578 4.03906C52.1328 3.54427 51.6641 3.29688 51.3516 3.29688C50.987 3.29688 50.6615 3.40104 50.375 3.60938C50.0885 3.79167 49.6849 4.22135 49.1641 4.89844C48.9036 5.26302 48.6693 5.78385 48.4609 6.46094C48.2786 7.0599 48.1224 7.85417 47.9922 8.84375C47.862 9.83333 47.8229 11.1094 47.875 12.6719L47.9531 15.5234ZM76.1562 11.5C76.8333 11.5 77.5365 11.6302 78.2656 11.8906C78.9948 12.125 79.6979 12.4375 80.375 12.8281C81.0521 13.1927 81.6641 13.5964 82.2109 14.0391C82.7839 14.4557 83.2526 14.8594 83.6172 15.25C84.2682 15.9531 84.7109 16.9036 84.9453 18.1016C85.2057 19.2734 85.2578 20.4844 85.1016 21.7344C84.9453 22.9583 84.5807 24.1172 84.0078 25.2109C83.4349 26.3047 82.6406 27.112 81.625 27.6328C80.8958 27.9974 80.1797 28.2839 79.4766 28.4922C78.7734 28.7005 78.0964 28.8568 77.4453 28.9609C76.7943 29.0651 76.1823 29.1172 75.6094 29.1172C75.0365 29.1172 74.5417 29.1042 74.125 29.0781C73.3438 29.026 72.5234 28.7526 71.6641 28.2578C70.8307 27.763 70.0365 27.151 69.2812 26.4219C68.5521 25.6927 67.9271 24.8984 67.4062 24.0391C66.8854 23.1536 66.5729 22.3203 66.4688 21.5391C66.3125 20.4714 66.2865 19.3516 66.3906 18.1797C66.4948 17.0078 66.8724 15.9271 67.5234 14.9375C68.2005 13.9479 69.2161 13.1276 70.5703 12.4766C71.9505 11.8255 73.8125 11.5 76.1562 11.5ZM74.8672 26.6562C75.1536 26.7083 75.5443 26.6432 76.0391 26.4609C76.5339 26.2526 77.0156 25.9271 77.4844 25.4844C77.9792 25.0417 78.4089 24.4818 78.7734 23.8047C79.1641 23.1016 79.3984 22.2552 79.4766 21.2656C79.5547 20.3021 79.5547 19.4167 79.4766 18.6094C79.4245 17.8021 79.3073 17.099 79.125 16.5C78.9427 15.875 78.7344 15.3672 78.5 14.9766C78.2656 14.5859 78.0182 14.3125 77.7578 14.1562C77.3151 13.9219 76.7812 13.7396 76.1562 13.6094C75.5312 13.4531 74.9974 13.4792 74.5547 13.6875C74.3464 13.7917 74.0859 14.013 73.7734 14.3516C73.4609 14.6901 73.1484 15.1198 72.8359 15.6406C72.5234 16.1354 72.237 16.7083 71.9766 17.3594C71.7422 18.0104 71.5729 18.6875 71.4688 19.3906C71.3646 20.0938 71.3385 20.849 71.3906 21.6562C71.4688 22.4635 71.638 23.2318 71.8984 23.9609C72.1589 24.6641 72.5234 25.276 72.9922 25.7969C73.487 26.2917 74.112 26.5781 74.8672 26.6562ZM85.5703 1.14844C86.4818 1.27865 87.276 1.38281 87.9531 1.46094C88.6302 1.53906 89.1901 1.60417 89.6328 1.65625C90.1536 1.70833 90.5964 1.7474 90.9609 1.77344C91.3776 1.82552 91.8854 1.79948 92.4844 1.69531C93.1094 1.59115 93.7734 1.48698 94.4766 1.38281C95.1797 1.2526 95.9089 1.14844 96.6641 1.07031C97.4193 0.992188 98.1484 0.992188 98.8516 1.07031C99.3203 1.1224 99.9193 1.22656 100.648 1.38281C101.378 1.53906 102.146 1.78646 102.953 2.125C103.786 2.46354 104.62 2.90625 105.453 3.45312C106.286 4 107.042 4.6901 107.719 5.52344C108.396 6.35677 108.956 7.34635 109.398 8.49219C109.841 9.63802 110.089 10.9792 110.141 12.5156C110.219 14.8073 110.01 16.8906 109.516 18.7656C109.021 20.6406 108.253 22.2422 107.211 23.5703C106.195 24.8984 104.906 25.9401 103.344 26.6953C101.781 27.4505 99.9583 27.8672 97.875 27.9453C96.2865 28.0755 94.724 28.1927 93.1875 28.2969C92.5365 28.349 91.8464 28.388 91.1172 28.4141C90.4141 28.4401 89.7109 28.4661 89.0078 28.4922C88.3047 28.4922 87.6276 28.4792 86.9766 28.4531C86.3255 28.4271 85.7266 28.388 85.1797 28.3359C85.7786 28.0495 86.2604 27.763 86.625 27.4766C87.0156 27.1901 87.3151 26.9427 87.5234 26.7344C87.7578 26.474 87.9271 26.2396 88.0312 26.0312C88.0833 25.7448 88.1615 25.1849 88.2656 24.3516C88.3438 23.6484 88.4479 22.6458 88.5781 21.3438C88.7083 20.0417 88.8646 18.2708 89.0469 16.0312L89.2812 13.2578C89.4115 11.5391 89.4635 10.1328 89.4375 9.03906C89.4375 7.94531 89.4115 7.08594 89.3594 6.46094C89.2812 5.73177 89.1771 5.19792 89.0469 4.85938C88.9427 4.57292 88.7474 4.23438 88.4609 3.84375C88.2005 3.53125 87.8359 3.15365 87.3672 2.71094C86.9245 2.24219 86.3255 1.72135 85.5703 1.14844ZM93.8125 15.5234C93.8646 17.8411 93.9818 19.625 94.1641 20.875C94.3724 22.099 94.5938 23.0104 94.8281 23.6094C95.1146 24.2865 95.4271 24.6901 95.7656 24.8203C96.2604 24.8203 96.8203 24.612 97.4453 24.1953C98.0703 23.7526 98.6823 23.0885 99.2812 22.2031C99.9062 21.3177 100.466 20.2109 100.961 18.8828C101.482 17.5547 101.859 16.0052 102.094 14.2344C102.328 12.4635 102.263 10.901 101.898 9.54688C101.534 8.19271 101.052 7.0599 100.453 6.14844C99.8542 5.21094 99.2422 4.50781 98.6172 4.03906C97.9922 3.54427 97.5234 3.29688 97.2109 3.29688C96.8464 3.29688 96.5208 3.40104 96.2344 3.60938C95.9479 3.79167 95.5443 4.22135 95.0234 4.89844C94.763 5.26302 94.5286 5.78385 94.3203 6.46094C94.138 7.0599 93.9818 7.85417 93.8516 8.84375C93.7214 9.83333 93.6823 11.1094 93.7344 12.6719L93.8125 15.5234ZM122.016 11.5C122.693 11.5 123.396 11.6302 124.125 11.8906C124.854 12.125 125.557 12.4375 126.234 12.8281C126.911 13.1927 127.523 13.5964 128.07 14.0391C128.643 14.4557 129.112 14.8594 129.477 15.25C130.128 15.9531 130.57 16.9036 130.805 18.1016C131.065 19.2734 131.117 20.4844 130.961 21.7344C130.805 22.9583 130.44 24.1172 129.867 25.2109C129.294 26.3047 128.5 27.112 127.484 27.6328C126.755 27.9974 126.039 28.2839 125.336 28.4922C124.633 28.7005 123.956 28.8568 123.305 28.9609C122.654 29.0651 122.042 29.1172 121.469 29.1172C120.896 29.1172 120.401 29.1042 119.984 29.0781C119.203 29.026 118.383 28.7526 117.523 28.2578C116.69 27.763 115.896 27.151 115.141 26.4219C114.411 25.6927 113.786 24.8984 113.266 24.0391C112.745 23.1536 112.432 22.3203 112.328 21.5391C112.172 20.4714 112.146 19.3516 112.25 18.1797C112.354 17.0078 112.732 15.9271 113.383 14.9375C114.06 13.9479 115.076 13.1276 116.43 12.4766C117.81 11.8255 119.672 11.5 122.016 11.5ZM120.727 26.6562C121.013 26.7083 121.404 26.6432 121.898 26.4609C122.393 26.2526 122.875 25.9271 123.344 25.4844C123.839 25.0417 124.268 24.4818 124.633 23.8047C125.023 23.1016 125.258 22.2552 125.336 21.2656C125.414 20.3021 125.414 19.4167 125.336 18.6094C125.284 17.8021 125.167 17.099 124.984 16.5C124.802 15.875 124.594 15.3672 124.359 14.9766C124.125 14.5859 123.878 14.3125 123.617 14.1562C123.174 13.9219 122.641 13.7396 122.016 13.6094C121.391 13.4531 120.857 13.4792 120.414 13.6875C120.206 13.7917 119.945 14.013 119.633 14.3516C119.32 14.6901 119.008 15.1198 118.695 15.6406C118.383 16.1354 118.096 16.7083 117.836 17.3594C117.602 18.0104 117.432 18.6875 117.328 19.3906C117.224 20.0938 117.198 20.849 117.25 21.6562C117.328 22.4635 117.497 23.2318 117.758 23.9609C118.018 24.6641 118.383 25.276 118.852 25.7969C119.346 26.2917 119.971 26.5781 120.727 26.6562Z" fill="black"/>
</svg>
